<?xml version="1.0" standalone="no"?>
<!DOCTYPE svg PUBLIC "-//W3C//DTD SVG 20010904//EN"
 "http://www.w3.org/TR/2001/REC-SVG-20010904/DTD/svg10.dtd">
<svg version="1.0" xmlns="http://www.w3.org/2000/svg"
 width="512.000000pt" height="512.000000pt" viewBox="0 0 512.000000 512.000000"
 preserveAspectRatio="xMidYMid meet">
<metadata>
Created by potrace 1.11, written by Peter Selinger 2001-2013
</metadata>
<g transform="translate(0.000000,512.000000) scale(0.100000,-0.100000)"
fill="#000000" stroke="none">
<path d="M1910 4519 c-13 -6 -39 -21 -58 -35 l-33 -26 -49 21 c-84 36 -187 25
-243 -28 -23 -21 -31 -23 -45 -13 -46 32 -88 44 -143 39 -61 -5 -135 -41 -157
-77 -10 -17 -22 -20 -78 -20 -50 0 -75 -5 -101 -21 -109 -68 -111 -218 -3
-274 47 -24 129 -19 173 10 36 25 40 25 97 14 33 -6 60 -15 60 -19 0 -4 -20
-13 -44 -20 -34 -9 -52 -22 -75 -55 -17 -24 -31 -50 -31 -59 0 -20 -17 -20
-50 -1 -88 50 -229 -29 -264 -148 l-12 -42 -70 -5 c-117 -8 -191 -77 -203
-187 -6 -55 -7 -58 -41 -66 -47 -11 -108 -55 -128 -92 -10 -16 -21 -33 -27
-37 -5 -4 -11 -46 -12 -94 l-2 -86 -48 -23 c-58 -28 -83 -55 -113 -120 -19
-41 -22 -61 -18 -122 5 -67 3 -74 -19 -95 -50 -47 -78 -108 -78 -174 0 -33 6
-72 13 -86 12 -22 11 -29 -19 -72 -43 -64 -44 -132 -5 -194 37 -59 78 -82 146
-82 111 0 171 64 167 177 -2 62 -1 63 44 110 61 63 72 86 71 154 l-1 56 38 12
c21 6 44 18 51 26 7 8 15 15 19 15 3 0 6 -46 5 -103 -1 -98 -2 -104 -29 -132
-15 -17 -41 -57 -56 -90 -39 -80 -39 -154 -3 -236 15 -33 31 -59 35 -59 5 0
-8 -26 -28 -57 -33 -51 -38 -67 -41 -131 -4 -62 -1 -80 22 -125 14 -29 36 -63
49 -75 22 -21 24 -29 19 -97 -4 -62 -1 -81 17 -117 12 -24 34 -53 48 -65 26
-21 26 -21 9 -62 -32 -80 -16 -169 39 -223 l27 -27 -17 -51 c-16 -48 -16 -54
0 -103 29 -91 100 -134 203 -124 94 10 162 79 162 165 0 41 -20 103 -43 136
-12 16 -16 31 -10 35 5 3 14 14 19 23 9 16 12 15 42 -8 18 -14 30 -29 27 -34
-3 -5 -1 -19 4 -32 5 -13 12 -36 16 -51 3 -15 22 -44 43 -64 32 -32 37 -42 39
-89 1 -30 7 -64 14 -76 19 -37 60 -82 81 -90 16 -6 18 -14 12 -43 -23 -127 90
-222 221 -185 70 20 100 64 100 149 0 51 -5 73 -21 96 -18 26 -20 43 -18 118
1 49 5 91 8 95 4 3 30 -19 59 -49 43 -44 100 -91 192 -157 16 -11 113 -57 170
-81 286 -118 694 -118 990 0 141 57 183 81 298 177 l87 74 69 -11 c38 -6 77
-8 85 -5 9 3 16 5 16 3 0 -2 7 -26 15 -52 14 -45 13 -49 -6 -65 -75 -63 -62
-200 23 -246 53 -29 148 -19 188 19 33 32 55 94 46 135 -4 23 0 29 32 43 86
38 126 112 115 208 -5 46 -5 47 25 53 84 19 142 145 113 246 -6 21 -1 31 29
60 20 19 40 44 45 55 7 16 10 11 15 -25 16 -122 116 -173 229 -117 70 35 97
107 70 185 -9 28 -7 38 17 79 24 41 28 60 29 125 0 63 4 82 23 107 34 47 48
120 33 183 -10 43 -9 63 5 121 15 58 15 77 5 116 -6 25 -19 53 -29 61 -40 36
-42 43 -21 104 16 50 17 65 7 100 -6 23 -15 45 -20 51 -16 18 -7 25 36 25 42
0 44 -1 50 -35 7 -37 57 -92 91 -101 16 -4 23 -19 32 -67 10 -50 19 -68 47
-94 32 -30 42 -33 96 -33 52 0 64 4 95 31 19 17 40 48 46 69 12 40 4 130 -11
130 -15 0 -24 43 -24 126 -1 78 -2 82 -39 127 -20 25 -47 49 -58 52 -17 6 -20
12 -15 33 20 83 19 100 -9 150 -21 38 -37 54 -73 71 -46 22 -47 23 -47 69 0
94 -55 174 -140 207 -35 13 -45 22 -45 39 0 49 -41 143 -78 179 -35 35 -125
77 -163 77 -9 0 -21 10 -28 23 -27 50 -38 67 -67 94 -49 48 -86 66 -149 72
-51 5 -60 9 -63 27 -3 19 2 20 77 21 71 0 81 -2 87 -19 17 -55 114 -113 171
-102 53 10 110 71 118 126 14 92 -44 165 -138 177 -46 5 -51 9 -59 37 -4 18
-26 48 -48 68 -39 35 -61 42 -123 37 -20 -2 -29 4 -36 21 -5 13 -25 41 -45 64
-47 55 -106 72 -185 56 -51 -11 -57 -11 -66 5 -27 48 -106 111 -161 128 -89
28 -206 12 -276 -37 -14 -10 -21 -7 -43 15 -95 94 -255 97 -358 6 -46 -40 -47
-40 -84 -28 -21 7 -42 17 -48 21 -5 4 -40 8 -78 8 -58 0 -79 -5 -142 -36 l-74
-36 -33 38 c-37 41 -112 80 -173 90 -29 4 -60 -1 -104 -16 l-64 -21 -26 24
c-51 49 -93 67 -151 66 -30 0 -66 -5 -80 -10z m-420 -394 c10 -12 8 -21 -11
-50 -22 -31 -26 -33 -45 -21 -11 8 -31 16 -44 18 -40 5 -33 25 15 38 25 7 48
17 51 21 8 13 20 11 34 -6z m1087 -1074 c6 -10 32 -30 58 -45 40 -24 55 -27
103 -23 31 3 66 6 76 8 14 3 21 -4 27 -23 16 -59 47 -88 121 -112 15 -4 16 -9
6 -31 -6 -14 -15 -25 -20 -25 -4 0 -8 -25 -8 -56 0 -40 6 -64 21 -85 22 -31
18 -49 -10 -49 -23 0 -109 -57 -121 -80 -16 -30 -12 -55 15 -80 24 -22 26 -23
67 -7 24 9 65 17 92 19 48 3 50 2 58 -28 4 -18 24 -46 43 -63 31 -27 43 -31
94 -31 51 0 63 4 104 36 25 20 49 45 52 55 10 31 -22 122 -52 151 -15 14 -45
31 -66 38 -21 6 -36 15 -34 18 35 66 38 83 23 136 -17 59 -51 95 -96 105 l-31
6 26 34 c14 19 25 43 25 53 0 25 25 33 69 22 34 -9 36 -11 33 -47 -5 -52 30
-103 86 -128 24 -10 52 -19 63 -19 10 0 19 -4 19 -10 0 -5 -4 -10 -8 -10 -15
0 -32 -49 -32 -92 0 -34 6 -47 39 -79 21 -22 48 -39 60 -39 20 0 20 -1 -5 -37
-33 -49 -39 -77 -23 -116 17 -45 37 -65 75 -79 37 -13 41 -23 19 -52 -32 -42
-6 -155 45 -201 47 -43 52 -66 35 -168 -40 -230 -143 -514 -218 -596 -49 -53
-103 -81 -156 -81 -38 0 -51 4 -51 14 0 8 5 18 10 21 28 18 126 250 109 261
-12 7 -50 -5 -67 -22 -7 -8 -22 -14 -32 -14 -10 0 -21 -4 -24 -9 -12 -18 -287
-104 -386 -119 -216 -34 -302 -37 -482 -14 -204 25 -347 64 -521 141 -45 19
-48 23 -45 53 l3 33 55 -3 c30 -1 69 -7 85 -12 145 -44 1035 -44 1215 0 19 5
59 11 88 15 51 7 52 6 52 -19 0 -27 7 -31 34 -20 22 8 20 46 -4 74 l-20 23
-77 -17 c-201 -42 -696 -67 -943 -47 -234 19 -345 32 -412 46 -75 17 -90 14
-112 -20 -20 -31 -20 -30 4 -53 l21 -19 -26 4 c-29 6 -34 -15 -11 -58 7 -14
16 -38 20 -54 8 -32 71 -138 92 -156 23 -19 16 -29 -22 -29 -56 0 -123 45
-169 115 -23 33 -85 158 -85 170 0 4 -7 21 -15 38 -33 70 -91 302 -102 411 -5
51 8 88 56 154 31 42 39 110 17 153 -21 43 -21 46 13 54 15 3 41 19 57 36 37
39 40 113 5 160 -12 17 -21 31 -19 32 1 1 19 10 39 20 25 13 43 32 55 59 18
39 15 72 -11 141 -6 14 -1 17 36 17 63 1 100 33 106 95 5 42 8 46 27 41 12 -3
28 -6 37 -6 12 0 18 -12 22 -41 3 -23 15 -51 27 -64 l22 -23 -37 -11 c-20 -5
-48 -22 -62 -38 -40 -43 -46 -85 -22 -172 3 -8 -13 -18 -43 -27 -68 -21 -103
-69 -103 -143 1 -48 5 -61 30 -89 18 -20 45 -37 72 -44 24 -5 43 -13 43 -16 0
-3 -13 -29 -30 -59 -39 -68 -40 -114 -3 -142 58 -46 106 -35 171 41 42 48 70
49 109 6 69 -80 112 -94 164 -57 25 18 29 27 29 70 0 57 -8 76 -58 138 -48 59
-106 84 -194 83 -63 -1 -68 1 -63 18 3 10 8 33 10 51 2 17 10 36 17 40 20 13
86 10 153 -6 108 -26 145 -14 145 45 0 24 -10 37 -53 69 -29 22 -71 44 -93 49
-38 8 -39 9 -46 61 -4 33 -14 61 -27 75 -28 30 -27 33 12 41 84 18 137 82 137
166 0 27 4 49 10 49 5 0 25 14 44 30 34 30 35 30 46 11 8 -16 6 -27 -10 -53
-36 -60 -15 -159 41 -189 18 -9 18 -11 -11 -36 -45 -38 -63 -78 -57 -130 12
-106 141 -159 226 -92 59 47 68 158 17 206 -31 29 -32 34 -6 51 26 16 60 84
60 119 0 16 -9 46 -20 67 l-19 39 27 24 c33 28 34 28 49 4z m20 -1892 c73 -10
193 -55 207 -78 22 -35 -205 -74 -359 -61 -101 8 -220 39 -220 57 0 20 97 65
170 78 90 17 107 17 202 4z"/>
<path d="M2932 2319 c-47 -23 -83 -63 -119 -131 -38 -71 -26 -122 36 -148 43
-18 69 -8 131 50 29 27 61 50 71 50 9 0 30 -15 46 -33 40 -45 87 -77 115 -77
12 0 37 11 53 24 26 21 30 30 28 69 -3 79 -71 170 -150 204 -51 21 -160 17
-211 -8z"/>
</g>
</svg>
