<svg xmlns="http://www.w3.org/2000/svg" viewBox="0 0 511.997 511.997">
  <defs/>
  <g fill="#FFF">
    <path d="M470.908 4.999C467.037-1.055 459.264.024 430.451.157c-17.287.083-34.047-.363-42.514.106-7.604.419-13.085 4.302-17.461 9.671l-14.164 25.097-61.528 109.045c-31.234 54.735-62.631 109.457-90.964 161.204l85.341 154.877 23.83 43.248c2.469 4.273 5.1 4.919 7.776 5.744 12.36 3.806 30.423 2.699 49.953 2.699 16.585 0 38.143.3 41.698-7.441 1.777-3.873.221-9.071-2.249-14.29 0 0-13.658-24.632-31.555-57.161 8.31 15.021 16.679 30.117 25.101 45.327l-94.811-173.8c2.137 4.067 4.297 8.12 6.449 12.179-2.3-4.319-4.462-8.4-6.449-12.179l71.787-127.65c24.9-43.814 49.867-87.726 74.328-132.169l.092-.167.024-.037c-.007.01-.012.02-.017.027l16.653-29.614c2.28-4.713.883-7.136-.863-9.874z"/>
    <path d="M403.74 478.333c-.009-.017-.017-.029-.026-.046l6.454 11.833c-1.95-4.123-4.482-8.264-6.428-11.787zM178.524 126.693c-6.253-10.893-10.978-25.094-25.283-25.288H77.378c-4.139.593-7.85 1.634-8.693 5.531-1.353 8.212 5.64 19.488 9.494 26.087 8.966 15.397 40.529 65.566 40.287 71.111-.157 3.718-49.61 88.145-71.107 126.432-3.198 5.684-10.07 15.927-7.909 20.546 2.261 4.829 6.751 6.63 9.478 6.323h76.66c15.66-1.907 16.355-10.189 30.807-36.353 22.124-40.05 45.712-80.742 66.383-117.739-12.776-23.741-29.763-51.406-44.254-76.65z"/>
  </g>
</svg>
